<svg width="106" height="164" viewBox="0 0 106 164" fill="none" xmlns="http://www.w3.org/2000/svg">
<path fill-rule="evenodd" clip-rule="evenodd" d="M0 34.3713C0 39.2525 3.88872 43.2096 8.68573 43.2096H13.8268C2.4008 73.5212 17.4745 76.5988 21.9938 76.5988H52.8188H53.1812H84.0062C88.5255 76.5988 103.599 73.5212 92.1732 43.2096H97.3143C102.111 43.2096 106 39.2525 106 34.3713C106 29.49 102.111 25.5329 97.3143 25.5329H84.0062H83.8364H53.1812H52.8188H22.1636H21.9938H8.68573C3.88872 25.5329 0 29.49 0 34.3713ZM86.5667 30.5045C87.9262 33.2402 89.12 35.8149 90.1626 38.238H96.9928C98.9818 38.238 100.594 36.5068 100.594 34.3713C100.594 32.2357 98.9818 30.5045 96.9928 30.5045H86.5667ZM19.4333 30.5045C18.0738 33.2402 16.88 35.8149 15.8374 38.238H9.00715C7.01818 38.238 5.40575 36.5068 5.40575 34.3713C5.40575 32.2357 7.01818 30.5045 9.00715 30.5045H19.4333Z" fill="url(#paint0_linear)"/>
<path fill-rule="evenodd" clip-rule="evenodd" d="M53 0C48.2101 0 44.3272 3.96297 44.3272 8.85157V10.8023H27.9752C25.0545 10.8024 22.1636 13.7629 22.1636 16.2035C22.1636 18.6442 23.9027 19.6407 26.0479 19.6407L70.3454 19.6407H71.7909H79.952C82.0973 19.6407 83.8363 18.6442 83.8363 16.2036C83.8363 13.7629 80.9454 10.8024 78.0248 10.8024H71.7909H70.3454H61.6727V8.85157C61.6727 3.96297 57.7898 0 53 0ZM56.7943 9.17914V10.8024H49.2057V9.17914C49.2057 7.15219 50.1091 4.91018 53 4.91018C55.8909 4.91018 56.7943 7.15219 56.7943 9.17914Z" fill="#41B0B3"/>
<path d="M39.2923 40.8621C39.4944 41.9202 37.5908 42.2136 35.2548 42.677C32.9187 43.1404 31.0349 43.5982 30.8328 42.5401C30.6307 41.4821 32.44 40.7007 34.776 40.2373C37.1121 39.7739 39.0381 39.5312 39.2923 40.8621Z" fill="#161F22"/>
<path d="M66.0842 40.8621C65.8821 41.9202 67.7857 42.2136 70.1217 42.677C72.4577 43.1404 74.3416 43.5982 74.5437 42.5401C74.7458 41.4821 72.9365 40.7007 70.6004 40.2373C68.2644 39.7739 66.3384 39.5312 66.0842 40.8621Z" fill="#161F22"/>
<path d="M55.8424 51.0659C56.1348 51.0659 56.3766 51.1679 56.5677 51.3719C56.7589 51.5646 56.8545 51.8083 56.8545 52.1029V54.0298C56.8545 55.2539 56.5171 56.2116 55.8424 56.903C55.1789 57.5944 54.2286 57.9401 52.9915 57.9401C51.7545 57.9401 50.8042 57.5944 50.1407 56.903C49.4772 56.2116 49.1454 55.2539 49.1454 54.0298L49.1454 52.1029C49.1454 51.8083 49.241 51.5646 49.4322 51.3719C49.6234 51.1679 49.8652 51.0659 50.1576 51.0659C50.4499 51.0659 50.6917 51.1679 50.8829 51.3719C51.0741 51.5646 51.1697 51.8083 51.1697 52.1029V54.0298C51.1697 54.7212 51.3215 55.2369 51.6251 55.5769C51.9288 55.9056 52.3842 56.0699 52.9915 56.0699C53.6101 56.0699 54.0711 55.9056 54.3748 55.5769C54.6784 55.2369 54.8302 54.7212 54.8302 54.0298V52.1029C54.8302 51.8083 54.9258 51.5646 55.117 51.3719C55.3082 51.1679 55.55 51.0659 55.8424 51.0659Z" fill="#161F22"/>
<path d="M37.8458 95.5354C37.8458 95.9956 37.6794 96.4559 37.3467 96.9161L23.7979 114.648H35.1717C35.8135 114.648 36.3364 114.842 36.7405 115.229C37.1446 115.592 37.3467 116.089 37.3467 116.719C37.3467 117.324 37.1327 117.833 36.7049 118.245C36.3008 118.633 35.7897 118.826 35.1717 118.826H19.5194C18.9014 118.826 18.3665 118.608 17.9149 118.172C17.4633 117.736 17.2375 117.24 17.2375 116.683C17.2375 116.222 17.4039 115.762 17.7367 115.302L31.2497 97.5702H20.9456C20.3038 97.5702 19.7808 97.3764 19.3768 96.9888C18.9727 96.6012 18.7706 96.0925 18.7706 95.4627C18.7706 94.8571 18.9727 94.3605 19.3768 93.973C19.8046 93.5854 20.3275 93.3916 20.9456 93.3916H35.5283C36.0987 93.3916 36.6217 93.5975 37.0971 94.0093C37.5962 94.4211 37.8458 94.9298 37.8458 95.5354Z" fill="#161F22"/>
<path d="M58.0419 114.648C58.6599 114.648 59.1709 114.866 59.575 115.302C60.0029 115.714 60.2168 116.198 60.2168 116.755C60.2168 117.361 60.0029 117.857 59.575 118.245C59.1709 118.633 58.6599 118.826 58.0419 118.826H46.0976C45.4796 118.826 44.9567 118.62 44.5288 118.209C44.1247 117.773 43.9227 117.24 43.9227 116.61V95.6081C43.9227 94.9782 44.1247 94.4574 44.5288 94.0456C44.9567 93.6096 45.4796 93.3916 46.0976 93.3916H58.0419C58.6599 93.3916 59.1709 93.5975 59.575 94.0093C60.0029 94.3969 60.2168 94.9056 60.2168 95.5354C60.2168 96.141 60.0148 96.6376 59.6107 97.0251C59.2066 97.3885 58.6837 97.5702 58.0419 97.5702H48.3795V103.747H56.4374C57.0555 103.747 57.5665 103.953 57.9706 104.365C58.3984 104.752 58.6124 105.261 58.6124 105.891C58.6124 106.497 58.4103 106.993 58.0062 107.381C57.6021 107.744 57.0792 107.926 56.4374 107.926H48.3795V114.648H58.0419Z" fill="#161F22"/>
<path d="M85.3984 93.3916C85.9689 93.3916 86.4324 93.5854 86.7889 93.973C87.1455 94.3605 87.3237 94.845 87.3237 95.4264V116.61C87.3237 117.24 87.1098 117.773 86.682 118.209C86.2779 118.62 85.7668 118.826 85.1488 118.826C84.816 118.826 84.4833 118.778 84.1505 118.681C83.8415 118.56 83.6157 118.402 83.4731 118.209L70.3878 101.276V116.792C70.3878 117.373 70.1977 117.857 69.8174 118.245C69.4608 118.633 68.9854 118.826 68.3912 118.826C67.8207 118.826 67.3572 118.633 67.0006 118.245C66.6441 117.857 66.4658 117.373 66.4658 116.792V95.6081C66.4658 94.9782 66.6679 94.4574 67.072 94.0456C67.4998 93.6096 68.0228 93.3916 68.6408 93.3916C68.9973 93.3916 69.342 93.4643 69.6747 93.6096C70.0313 93.755 70.2927 93.9487 70.4591 94.191L83.4374 111.051V95.4264C83.4374 94.845 83.6157 94.3605 83.9722 93.973C84.3525 93.5854 84.8279 93.3916 85.3984 93.3916Z" fill="#161F22"/>
<path d="M27.5417 138.565C28.7539 138.565 29.9067 138.941 31.0001 139.692C32.0935 140.418 32.973 141.412 33.6386 142.671C34.3041 143.907 34.6369 145.263 34.6369 146.741C34.6369 148.194 34.3041 149.551 33.6386 150.81C32.973 152.07 32.0935 153.075 31.0001 153.826C29.9067 154.553 28.7539 154.916 27.5417 154.916H21.3378V161.784C21.3378 162.438 21.1476 162.97 20.7673 163.382C20.387 163.794 19.8878 164 19.2698 164C18.6756 164 18.1883 163.794 17.808 163.382C17.4276 162.946 17.2375 162.413 17.2375 161.784V140.782C17.2375 140.152 17.4395 139.631 17.8436 139.219C18.2715 138.783 18.7944 138.565 19.4124 138.565H27.5417ZM27.5417 150.774C27.9933 150.774 28.433 150.58 28.8609 150.193C29.3125 149.805 29.669 149.308 29.9305 148.703C30.2157 148.073 30.3584 147.419 30.3584 146.741C30.3584 146.062 30.2157 145.421 29.9305 144.815C29.669 144.185 29.3125 143.689 28.8609 143.325C28.433 142.938 27.9933 142.744 27.5417 142.744H21.3378V150.774H27.5417Z" fill="#161F22"/>
<path d="M63.7185 150.919C63.7185 153.317 63.1956 155.522 62.1497 157.532C61.1039 159.519 59.6539 161.093 57.7999 162.256C55.9696 163.419 53.9017 164 51.596 164C49.2903 164 47.2105 163.419 45.3565 162.256C43.5262 161.093 42.0881 159.519 41.0423 157.532C40.0202 155.522 39.5091 153.317 39.5091 150.919C39.5091 148.521 40.0202 146.329 41.0423 144.343C42.0881 142.332 43.5262 140.745 45.3565 139.583C47.2105 138.42 49.2903 137.839 51.596 137.839C53.9017 137.839 55.9696 138.42 57.7999 139.583C59.6539 140.745 61.1039 142.332 62.1497 144.343C63.1956 146.329 63.7185 148.521 63.7185 150.919ZM59.0835 150.919C59.0835 149.296 58.7626 147.831 58.1208 146.523C57.479 145.19 56.5876 144.137 55.4467 143.362C54.3057 142.586 53.0222 142.199 51.596 142.199C50.146 142.199 48.8506 142.586 47.7097 143.362C46.5925 144.112 45.713 145.154 45.0712 146.486C44.4532 147.819 44.1442 149.296 44.1442 150.919C44.1442 152.542 44.4532 154.02 45.0712 155.352C45.713 156.684 46.5925 157.738 47.7097 158.513C48.8506 159.264 50.146 159.64 51.596 159.64C53.0222 159.64 54.3057 159.252 55.4467 158.477C56.5876 157.702 57.479 156.66 58.1208 155.352C58.7626 154.02 59.0835 152.542 59.0835 150.919Z" fill="#161F22"/>
<path d="M85.1488 138.565C85.7906 138.565 86.3135 138.759 86.7176 139.147C87.1217 139.534 87.3237 140.043 87.3237 140.673C87.3237 141.303 87.1217 141.811 86.7176 142.199C86.3135 142.562 85.7906 142.744 85.1488 142.744H79.5511V161.784C79.5511 162.413 79.3252 162.946 78.8736 163.382C78.422 163.794 77.8634 164 77.1979 164C76.5323 164 75.9856 163.794 75.5577 163.382C75.1299 162.946 74.916 162.413 74.916 161.784V142.744H69.3182C68.6764 142.744 68.1535 142.55 67.7494 142.162C67.3453 141.775 67.1433 141.266 67.1433 140.636C67.1433 140.031 67.3453 139.534 67.7494 139.147C68.1772 138.759 68.7002 138.565 69.3182 138.565H85.1488Z" fill="#161F22"/>
<defs>
<linearGradient id="paint0_linear" x1="53" y1="25.5329" x2="53" y2="76.5988" gradientUnits="userSpaceOnUse">
<stop stop-color="#41B0B3"/>
<stop offset="1" stop-color="#53C5C5"/>
</linearGradient>
</defs>
</svg>
