<svg width="170" height="259" viewBox="0 0 170 259" fill="none" xmlns="http://www.w3.org/2000/svg">
<path fill-rule="evenodd" clip-rule="evenodd" d="M0 54.0909C0 61.7727 6.23662 68 13.9299 68H22.1751C3.85034 115.702 28.0251 120.545 35.2731 120.545H84.7094H85.2906H134.727C141.975 120.545 166.15 115.702 147.825 68H156.07C163.763 68 170 61.7727 170 54.0909C170 46.4091 163.763 40.1818 156.07 40.1818H134.727H134.455H85.2906H84.7094H35.5455H35.2731H13.9299C6.23662 40.1818 0 46.4091 0 54.0909ZM138.833 48.0057C141.014 52.311 142.928 56.3628 144.6 60.1761H155.555C158.744 60.1761 161.33 57.4517 161.33 54.0909C161.33 50.7301 158.744 48.0057 155.555 48.0057H138.833ZM31.1666 48.0057C28.9863 52.311 27.0717 56.3628 25.3996 60.1761H14.4454C11.2556 60.1761 8.6696 57.4517 8.6696 54.0909C8.6696 50.7301 11.2556 48.0057 14.4454 48.0057H31.1666Z" fill="url(#paint0_linear)"/>
<path fill-rule="evenodd" clip-rule="evenodd" d="M85 0C77.3181 0 71.0909 6.23662 71.0909 13.9299V16.9999H44.8659C40.1818 17 35.5454 21.659 35.5454 25.4999C35.5454 29.3408 38.3345 30.909 41.775 30.909L112.818 30.9091H115.136H128.225C131.665 30.9091 134.454 29.3409 134.454 25.5C134.454 21.6591 129.818 17 125.134 17H115.136H112.818H98.909V13.9299C98.909 6.23662 92.6818 0 85 0ZM91.0852 14.4454V17H78.9147V14.4454C78.9147 11.2556 80.3636 7.72727 85 7.72727C89.6363 7.72727 91.0852 11.2556 91.0852 14.4454Z" fill="#41B0B3"/>
<path d="M63.016 64.3057C63.3401 65.9708 60.2871 66.4326 56.5407 67.1619C52.7942 67.8911 49.7729 68.6116 49.4488 66.9465C49.1247 65.2814 52.0264 64.0517 55.7729 63.3225C59.5194 62.5932 62.6082 62.2112 63.016 64.3057Z" fill="#161F22"/>
<path d="M105.984 64.3057C105.66 65.9708 108.713 66.4326 112.459 67.1619C116.206 67.8911 119.227 68.6116 119.551 66.9465C119.875 65.2814 116.974 64.0517 113.227 63.3225C109.481 62.5932 106.392 62.2112 105.984 64.3057Z" fill="#161F22"/>
<path d="M89.5585 80.3636C90.0275 80.3636 90.4152 80.5242 90.7218 80.8452C91.0284 81.1485 91.1818 81.532 91.1818 81.9957V85.028C91.1818 86.9544 90.6407 88.4617 89.5585 89.5497C88.4944 90.6378 86.9704 91.1818 84.9864 91.1818C83.0025 91.1818 81.4784 90.6378 80.4143 89.5497C79.3502 88.4617 78.8181 86.9544 78.8181 85.028L78.8181 81.9957C78.8181 81.532 78.9714 81.1485 79.278 80.8452C79.5846 80.5242 79.9724 80.3636 80.4413 80.3636C80.9103 80.3636 81.2981 80.5242 81.6047 80.8452C81.9113 81.1485 82.0646 81.532 82.0646 81.9957V85.028C82.0646 86.1161 82.3081 86.9277 82.795 87.4628C83.282 87.9801 84.0125 88.2387 84.9864 88.2387C85.9784 88.2387 86.7179 87.9801 87.2048 87.4628C87.6918 86.9277 87.9353 86.1161 87.9353 85.028V81.9957C87.9353 81.532 88.0886 81.1485 88.3952 80.8452C88.7018 80.5242 89.0896 80.3636 89.5585 80.3636Z" fill="#161F22"/>
<path d="M60.6961 150.346C60.6961 151.071 60.4293 151.795 59.8956 152.519L38.1665 180.424H56.4075C57.4367 180.424 58.2754 180.729 58.9235 181.339C59.5715 181.911 59.8956 182.692 59.8956 183.683C59.8956 184.636 59.5525 185.437 58.8663 186.085C58.2182 186.695 57.3986 187 56.4075 187H31.3047C30.3135 187 29.4558 186.657 28.7315 185.971C28.0072 185.285 27.645 184.503 27.645 183.626C27.645 182.902 27.9119 182.178 28.4456 181.453L50.1175 153.549H33.5919C32.5627 153.549 31.724 153.244 31.0759 152.634C30.4279 152.024 30.1038 151.223 30.1038 150.232C30.1038 149.279 30.4279 148.498 31.0759 147.888C31.7621 147.278 32.6008 146.973 33.5919 146.973H56.9793C57.8942 146.973 58.7329 147.297 59.4953 147.945C60.2958 148.593 60.6961 149.393 60.6961 150.346Z" fill="#161F22"/>
<path d="M93.086 180.424C94.0772 180.424 94.8968 180.767 95.5449 181.453C96.231 182.101 96.5741 182.864 96.5741 183.741C96.5741 184.694 96.231 185.475 95.5449 186.085C94.8968 186.695 94.0772 187 93.086 187H73.9301C72.939 187 72.1003 186.676 71.4141 186.028C70.7661 185.342 70.442 184.503 70.442 183.512V150.461C70.442 149.47 70.7661 148.65 71.4141 148.002C72.1003 147.316 72.939 146.973 73.9301 146.973H93.086C94.0772 146.973 94.8968 147.297 95.5449 147.945C96.231 148.555 96.5741 149.355 96.5741 150.346C96.5741 151.299 96.2501 152.081 95.602 152.691C94.954 153.263 94.1153 153.549 93.086 153.549H77.5898V163.27H90.5129C91.504 163.27 92.3236 163.594 92.9717 164.242C93.6579 164.852 94.0009 165.652 94.0009 166.643C94.0009 167.596 93.6769 168.378 93.0289 168.988C92.3808 169.56 91.5421 169.845 90.5129 169.845H77.5898V180.424H93.086Z" fill="#161F22"/>
<path d="M136.96 146.973C137.875 146.973 138.618 147.278 139.19 147.888C139.762 148.498 140.048 149.26 140.048 150.175V183.512C140.048 184.503 139.704 185.342 139.018 186.028C138.37 186.676 137.551 187 136.559 187C136.026 187 135.492 186.924 134.958 186.771C134.463 186.581 134.101 186.333 133.872 186.028L112.886 159.381V183.798C112.886 184.713 112.581 185.475 111.971 186.085C111.399 186.695 110.637 187 109.684 187C108.769 187 108.026 186.695 107.454 186.085C106.882 185.475 106.596 184.713 106.596 183.798V150.461C106.596 149.47 106.92 148.65 107.568 148.002C108.254 147.316 109.093 146.973 110.084 146.973C110.656 146.973 111.209 147.087 111.742 147.316C112.314 147.545 112.734 147.85 113 148.231L133.815 174.763V150.175C133.815 149.26 134.101 148.498 134.672 147.888C135.282 147.278 136.045 146.973 136.96 146.973Z" fill="#161F22"/>
<path d="M44.1706 218.064C46.1147 218.064 47.9636 218.655 49.7172 219.836C51.4708 220.98 52.8813 222.543 53.9487 224.525C55.0161 226.469 55.5497 228.604 55.5497 230.93C55.5497 233.217 55.0161 235.352 53.9487 237.334C52.8813 239.316 51.4708 240.898 49.7172 242.08C47.9636 243.224 46.1147 243.795 44.1706 243.795H34.2209V254.603C34.2209 255.632 33.916 256.471 33.306 257.119C32.6961 257.767 31.8955 258.091 30.9044 258.091C29.9514 258.091 29.1699 257.767 28.5599 257.119C27.95 256.433 27.645 255.594 27.645 254.603V221.552C27.645 220.561 27.969 219.741 28.6171 219.093C29.3033 218.407 30.142 218.064 31.1331 218.064H44.1706ZM44.1706 237.277C44.8949 237.277 45.6001 236.972 46.2863 236.362C47.0106 235.752 47.5824 234.97 48.0017 234.017C48.4592 233.026 48.6879 231.997 48.6879 230.93C48.6879 229.862 48.4592 228.852 48.0017 227.899C47.5824 226.908 47.0106 226.126 46.2863 225.554C45.6001 224.945 44.8949 224.64 44.1706 224.64H34.2209V237.277H44.1706Z" fill="#161F22"/>
<path d="M102.19 237.505C102.19 241.279 101.351 244.748 99.6741 247.913C97.9968 251.038 95.6714 253.516 92.6979 255.346C89.7626 257.176 86.446 258.091 82.7483 258.091C79.0505 258.091 75.7149 257.176 72.7415 255.346C69.8061 253.516 67.4998 251.038 65.8225 247.913C64.1833 244.748 63.3637 241.279 63.3637 237.505C63.3637 233.731 64.1833 230.281 65.8225 227.156C67.4998 223.991 69.8061 221.495 72.7415 219.665C75.7149 217.835 79.0505 216.92 82.7483 216.92C86.446 216.92 89.7626 217.835 92.6979 219.665C95.6714 221.495 97.9968 223.991 99.6741 227.156C101.351 230.281 102.19 233.731 102.19 237.505ZM94.7565 237.505C94.7565 234.951 94.2418 232.645 93.2126 230.586C92.1833 228.49 90.7537 226.832 88.9239 225.612C87.0941 224.392 85.0356 223.782 82.7483 223.782C80.4229 223.782 78.3453 224.392 76.5155 225.612C74.7238 226.793 73.3133 228.433 72.284 230.529C71.2929 232.626 70.7973 234.951 70.7973 237.505C70.7973 240.06 71.2929 242.385 72.284 244.482C73.3133 246.578 74.7238 248.237 76.5155 249.456C78.3453 250.638 80.4229 251.229 82.7483 251.229C85.0356 251.229 87.0941 250.619 88.9239 249.399C90.7537 248.179 92.1833 246.54 93.2126 244.482C94.2418 242.385 94.7565 240.06 94.7565 237.505Z" fill="#161F22"/>
<path d="M136.559 218.064C137.589 218.064 138.427 218.369 139.075 218.979C139.723 219.588 140.048 220.389 140.048 221.38C140.048 222.371 139.723 223.172 139.075 223.782C138.427 224.354 137.589 224.64 136.559 224.64H127.582V254.603C127.582 255.594 127.22 256.433 126.495 257.119C125.771 257.767 124.875 258.091 123.808 258.091C122.74 258.091 121.864 257.767 121.177 257.119C120.491 256.433 120.148 255.594 120.148 254.603V224.64H111.171C110.141 224.64 109.303 224.335 108.655 223.725C108.007 223.115 107.683 222.314 107.683 221.323C107.683 220.37 108.007 219.588 108.655 218.979C109.341 218.369 110.18 218.064 111.171 218.064H136.559Z" fill="#161F22"/>
<defs>
<linearGradient id="paint0_linear" x1="85" y1="40.1818" x2="85" y2="120.545" gradientUnits="userSpaceOnUse">
<stop stop-color="#41B0B3"/>
<stop offset="1" stop-color="#53C5C5"/>
</linearGradient>
</defs>
</svg>
